<svg xmlns="http://www.w3.org/2000/svg" viewBox="0 0 330 330" fill="none">
    <g opacity="0.92">
      <path d="M300 320 C280 270 250 230 215 200 C190 178 170 168 145 152" stroke="#5E6B4F" stroke-width="2.5" fill="none"/>
      <path d="M215 200 C228 184 240 178 252 180" stroke="#5E6B4F" stroke-width="1.7" fill="none"/>
      <ellipse cx="250" cy="184" rx="14" ry="22" fill="#5E6B4F" opacity="0.5" transform="rotate(35 250 184)"/>
      <ellipse cx="225" cy="156" rx="11" ry="18" fill="#6E7A5C" opacity="0.45" transform="rotate(20 225 156)"/>
      <ellipse cx="148" cy="115" rx="40" ry="46" fill="#D99FB0" opacity="0.75"/>
      <path d="M148 72 C166 82 174 100 170 120 C166 138 152 150 148 152 C144 150 130 138 126 120 C122 100 130 82 148 72Z" fill="#C77D7D" opacity="0.65"/>
      <ellipse cx="148" cy="115" rx="22" ry="28" fill="#C77D7D" opacity="0.7"/>
      <circle cx="148" cy="115" r="13" fill="#E8C46A" opacity="0.9"/>
      <circle cx="148" cy="115" r="7" fill="#A8842C" opacity="0.7"/>
    </g>
  </svg>
