<svg xmlns="http://www.w3.org/2000/svg" viewBox="0 0 300 300" fill="none">
    <g opacity="0.92">
      <path d="M30 290 C40 240 55 200 80 170 C100 145 115 130 130 110" stroke="#5E6B4F" stroke-width="2.5" fill="none"/>
      <path d="M80 170 C65 155 50 148 38 152" stroke="#5E6B4F" stroke-width="1.8" fill="none"/>
      <path d="M100 145 C110 128 108 112 100 102" stroke="#5E6B4F" stroke-width="1.5" fill="none"/>
      <ellipse cx="45" cy="148" rx="14" ry="22" fill="#5E6B4F" opacity="0.5" transform="rotate(-40 45 148)"/>
      <ellipse cx="72" cy="125" rx="10" ry="18" fill="#6E7A5C" opacity="0.45" transform="rotate(-20 72 125)"/>
      <ellipse cx="105" cy="100" rx="9" ry="16" fill="#5E6B4F" opacity="0.4" transform="rotate(10 105 100)"/>
      <ellipse cx="148" cy="85" rx="38" ry="44" fill="#D99FB0" opacity="0.75"/>
      <path d="M148 46 C164 54 172 70 168 88 C164 106 152 116 148 118 C144 116 132 106 128 88 C124 70 132 54 148 46Z" fill="#C77D7D" opacity="0.65"/>
      <path d="M188 85 C180 102 166 110 148 110 C130 110 116 102 108 85 C116 68 130 60 148 60 C166 60 180 68 188 85Z" fill="#C77D7D" opacity="0.6"/>
      <ellipse cx="148" cy="85" rx="22" ry="28" fill="#C77D7D" opacity="0.7"/>
      <circle cx="148" cy="85" r="12" fill="#E8C46A" opacity="0.9"/>
      <circle cx="148" cy="85" r="7" fill="#A8842C" opacity="0.7"/>
      <ellipse cx="112" cy="54" rx="9" ry="14" fill="#D99FB0" opacity="0.65" transform="rotate(-15 112 54)"/>
      <path d="M55 220 C70 210 88 215 95 225" stroke="#5E6B4F" stroke-width="1.5" fill="none"/>
    </g>
  </svg>
