<svg xmlns="http://www.w3.org/2000/svg" viewBox="0 0 300 300" fill="none">
    <g opacity="0.9">
      <path d="M40 70 C20 90 25 130 55 140 C40 110 50 85 75 80 C60 95 65 120 90 122 C80 100 95 80 120 88 C100 70 70 55 40 70Z" fill="#5E6B4F" opacity="0.55"/>
      <path d="M95 55 C70 45 45 60 50 90 C65 70 90 72 100 95 C108 72 130 70 145 88 C140 58 120 48 95 55Z" fill="#6E7A5C" opacity="0.5"/>
      <circle cx="150" cy="70" r="42" fill="#D99FB0" opacity="0.85"/>
      <circle cx="150" cy="70" r="42" fill="none" stroke="#C77D7D" stroke-width="1" opacity="0.5"/>
      <path d="M150 38 C162 50 162 62 150 70 C138 62 138 50 150 38Z" fill="#C77D7D" opacity="0.7"/>
      <path d="M182 70 C170 82 158 82 150 70 C158 58 170 58 182 70Z" fill="#C77D7D" opacity="0.7"/>
      <path d="M150 102 C138 90 138 78 150 70 C162 78 162 90 150 102Z" fill="#C77D7D" opacity="0.7"/>
      <path d="M118 70 C130 58 142 58 150 70 C142 82 130 82 118 70Z" fill="#C77D7D" opacity="0.7"/>
      <circle cx="150" cy="70" r="13" fill="#E8C46A" opacity="0.9"/>
      <path d="M120 100 C100 130 90 165 95 200 M120 100 C140 120 150 150 148 175" stroke="#5E6B4F" stroke-width="2.5" fill="none" opacity="0.5"/>
      <path d="M95 200 C75 195 60 210 65 230 C80 215 95 222 100 240 C108 218 125 215 138 228 C132 205 115 195 95 200Z" fill="#6E7A5C" opacity="0.5"/>
    </g>
  </svg>
