<svg xmlns="http://www.w3.org/2000/svg" viewBox="0 0 330 330" fill="none">
    <g opacity="0.92">
      <path d="M300 320 C280 270 250 230 215 200 C190 178 170 168 145 152" stroke="#5E6B4F" stroke-width="2.5" fill="none"/>
      <path d="M215 200 C228 184 240 178 252 180" stroke="#5E6B4F" stroke-width="1.7" fill="none"/>
      <ellipse cx="250" cy="184" rx="14" ry="22" fill="#5E6B4F" opacity="0.5" transform="rotate(35 250 184)"/>
      <ellipse cx="225" cy="156" rx="11" ry="18" fill="#6E7A5C" opacity="0.45" transform="rotate(20 225 156)"/>
      <ellipse cx="195" cy="135" rx="10" ry="17" fill="#5E6B4F" opacity="0.42" transform="rotate(10 195 135)"/>
      <ellipse cx="148" cy="115" rx="40" ry="46" fill="#D99FB0" opacity="0.75"/>
      <path d="M148 72 C166 82 174 100 170 120 C166 138 152 150 148 152 C144 150 130 138 126 120 C122 100 130 82 148 72Z" fill="#C77D7D" opacity="0.65"/>
      <path d="M192 115 C184 134 168 144 148 144 C128 144 112 134 104 115 C112 96 128 86 148 86 C168 86 184 96 192 115Z" fill="#C77D7D" opacity="0.6"/>
      <ellipse cx="148" cy="115" rx="22" ry="28" fill="#C77D7D" opacity="0.7"/>
      <circle cx="148" cy="115" r="13" fill="#E8C46A" opacity="0.9"/>
      <circle cx="148" cy="115" r="7" fill="#A8842C" opacity="0.7"/>
      <ellipse cx="110" cy="80" rx="9" ry="14" fill="#D99FB0" opacity="0.55" transform="rotate(-25 110 80)"/>
      <path d="M70 250 C90 245 110 252 122 264" stroke="#5E6B4F" stroke-width="1.5" fill="none"/>
      <ellipse cx="105" cy="252" rx="9" ry="15" fill="#5E6B4F" opacity="0.4" transform="rotate(-15 105 252)"/>
    </g>
  </svg>
